<svg width="64" height="64" xmlns="http://www.w3.org/2000/svg"><path d="M18.34 1.074a1.665 1.665 0 0 0-1.512 1.246 1.175 1.175 0 0 0-.058.356c0 .64.246 1.662 1.898 1.662.26.042 1.111 1.16 1.111 3.324v18.812c-2.326 3.707-6.683 4.555-14.84 4.816a1.153 1.153 0 0 0-1.11 1.06v.175a1.147 1.147 0 0 0 .296.86 1.163 1.163 0 0 0 .82.384c8.152.258 12.506 1.16 14.834 4.89v17.974c0 .986-.139 3.28-1.44 3.28a1.665 1.665 0 0 0-1.51 1.247 1.175 1.175 0 0 0-.06.365 1.601 1.601 0 0 0 1.57 1.652h38.146a1.15 1.15 0 0 0 1.135-.96l1.256-7.196a1.009 1.009 0 0 0 .017-.195 1.601 1.601 0 0 0-1.123-1.576 1.08 1.08 0 0 0-.365-.06 1.601 1.601 0 0 0-1.676 1.347s-.283 1.249-2.24 2.613c-1.826 1.108-4.59 1.938-7.77 1.938H28.104V37.656c2.589-3.031 7.168-3.735 15.283-3.922a1.153 1.153 0 0 0 1.123-1.15v-.112a1.156 1.156 0 0 0-1.123-1.154c-8.156-.187-12.74-.854-15.322-3.893V5.215H45.68a18.037 18.037 0 0 1 5.297.812c.122.048.244.094.37.148 3.942 1.73 4.33 3.709 4.33 3.709a.064.064 0 0 1 0 .022 1.601 1.601 0 0 0 1.857 1.13c1.098-.275 1.332-1.009 1.332-1.576a1.044 1.044 0 0 0-.02-.199l-1.214-7.227a1.15 1.15 0 0 0-1.133-.96H18.34zm5.242 21.523c1.272 5.774 3.882 8.581 9.086 9.92-5.223 1.316-7.82 4.082-9.086 9.79-1.278-5.717-3.887-8.477-9.056-9.79 5.15-1.339 7.772-4.133 9.056-9.92z" fill="#d49648"/></svg>