<svg width="16" height="20" viewBox="0 0 16 20" fill="none" xmlns="http://www.w3.org/2000/svg">
<path id="Vector" d="M8 4.68756C7.32013 4.68756 6.65552 4.88917 6.09023 5.26688C5.52493 5.6446 5.08434 6.18147 4.82416 6.80959C4.56399 7.43771 4.49591 8.12887 4.62855 8.79568C4.76119 9.46249 5.08858 10.075 5.56932 10.5557C6.05006 11.0365 6.66257 11.3639 7.32938 11.4965C7.99619 11.6291 8.68735 11.5611 9.31547 11.3009C9.9436 11.0407 10.4805 10.6001 10.8582 10.0348C11.2359 9.46954 11.4375 8.80493 11.4375 8.12506C11.4365 7.2137 11.074 6.33996 10.4295 5.69552C9.78511 5.05109 8.91136 4.68859 8 4.68756ZM8 9.68756C7.69097 9.68756 7.38887 9.59592 7.13192 9.42423C6.87497 9.25254 6.6747 9.00851 6.55644 8.723C6.43818 8.43749 6.40723 8.12333 6.46752 7.82023C6.52781 7.51714 6.67663 7.23873 6.89515 7.02021C7.11367 6.80169 7.39208 6.65287 7.69517 6.59258C7.99827 6.53229 8.31243 6.56324 8.59794 6.6815C8.88345 6.79976 9.12748 7.00003 9.29917 7.25698C9.47086 7.51393 9.5625 7.81603 9.5625 8.12506C9.5625 8.53946 9.39788 8.93689 9.10485 9.22992C8.81183 9.52294 8.4144 9.68756 8 9.68756ZM8 0.937561C6.09439 0.939629 4.26742 1.69755 2.91995 3.04501C1.57248 4.39248 0.814568 6.21945 0.8125 8.12506C0.8125 14.1688 7.19063 18.7032 7.4625 18.893C7.62005 19.0033 7.8077 19.0624 8 19.0624C8.1923 19.0624 8.37995 19.0033 8.5375 18.893C9.74552 18.0027 10.8508 16.9808 11.8328 15.8462C14.0273 13.3258 15.1875 10.654 15.1875 8.12506C15.1854 6.21945 14.4275 4.39248 13.08 3.04501C11.7326 1.69755 9.90561 0.939629 8 0.937561ZM10.4453 14.5868C9.70042 15.4424 8.8822 16.2314 8 16.9446C7.1178 16.2314 6.29958 15.4424 5.55469 14.5868C4.25 13.0758 2.6875 10.7274 2.6875 8.12506C2.6875 6.7161 3.24721 5.36484 4.2435 4.36856C5.23978 3.37227 6.59104 2.81256 8 2.81256C9.40896 2.81256 10.7602 3.37227 11.7565 4.36856C12.7528 5.36484 13.3125 6.7161 13.3125 8.12506C13.3125 10.7274 11.75 13.0758 10.4453 14.5868Z" fill="#3B82F6"/>
</svg>
