<svg xmlns="http://www.w3.org/2000/svg" fill="none" viewBox="0 0 115 31" height="31" width="115">
<g clip-path="url(#clip0_445_687)">
<path fill="#FF0080" d="M0 7.18094H4.11732L6.52467 16.5257L11.5941 7.18094H13.2804L15.7158 16.5257L20.7744 7.18094H25.3128L15.8367 24.621H13.7769L11.4085 15.4038L6.44478 24.621H4.43038L0 7.18094Z"></path>
<path fill="#FF0080" d="M39.1782 19.5174L42.9415 21.4694C42.0973 22.5783 40.981 23.4559 39.5863 24.1022C38.1937 24.7464 36.6478 25.0706 34.9508 25.0706C32.293 25.0706 30.1987 24.3227 28.6658 22.8269C27.135 21.331 26.3685 19.3423 26.3685 16.8651C26.3685 14.0333 27.3272 11.6361 29.2422 9.67547C31.1573 7.71487 33.4718 6.73349 36.1836 6.73349C37.8158 6.73349 39.2711 7.09232 40.5471 7.80782C41.8231 8.52332 42.8292 9.56523 43.5654 10.9335C44.3017 12.3019 44.6709 13.7869 44.6709 15.3887C44.6709 15.8902 44.6169 16.4781 44.5111 17.1526H30.6132C30.6564 18.3652 31.0537 19.3315 31.8072 20.0492C32.5585 20.769 33.5971 21.1278 34.9206 21.1278C36.5226 21.1278 37.9411 20.5917 39.1804 19.5174H39.1782ZM40.2664 14.0096C39.9468 12.9417 39.4114 12.1311 38.6665 11.582C37.9195 11.0308 37.017 10.7563 35.9612 10.7563C34.9054 10.7563 33.9706 11.0395 33.1285 11.6058C32.2843 12.1722 31.6453 12.9741 31.207 14.0096H40.2685H40.2664Z"></path>
<path fill="#FF0080" d="M52.9292 7.18095V9.1048C53.7194 8.31364 54.5723 7.72136 55.4899 7.32578C56.4075 6.9302 57.3898 6.73349 58.4348 6.73349C60.7083 6.73349 62.6407 7.59382 64.2297 9.31448C65.821 11.0351 66.6155 13.2422 66.6155 15.9356C66.6155 18.629 65.7929 20.7041 64.1498 22.4507C62.5068 24.1973 60.5593 25.0706 58.3053 25.0706C57.3013 25.0706 56.3686 24.8912 55.5028 24.5346C54.6392 24.1757 53.7799 23.5921 52.9249 22.7793V31.0022H48.5852V7.18095H52.9249H52.9292ZM57.5237 10.7714C56.1462 10.7714 55.0041 11.2427 54.0973 12.183C53.1905 13.1233 52.7371 14.3533 52.7371 15.8707C52.7371 17.3882 53.1905 18.6722 54.0973 19.6298C55.0041 20.5852 56.1462 21.0651 57.5237 21.0651C58.9012 21.0651 59.9807 20.5788 60.894 19.606C61.8073 18.6333 62.2628 17.3947 62.2628 15.888C62.2628 14.3814 61.8137 13.1665 60.9177 12.2089C60.0217 11.2535 58.8904 10.7736 57.5237 10.7736V10.7714Z"></path>
<path fill="#FF0080" d="M71.9419 0C72.7084 0 73.3647 0.278851 73.9131 0.834391C74.4615 1.38993 74.7357 2.06436 74.7357 2.85336C74.7357 3.64235 74.4637 4.29949 73.9218 4.84855C73.3798 5.39976 72.73 5.67429 71.9743 5.67429C71.2186 5.67429 70.5342 5.39328 69.9858 4.83342C69.4374 4.27139 69.1632 3.59048 69.1632 2.79067C69.1632 1.99087 69.4352 1.36399 69.9772 0.81926C70.5213 0.274528 71.1733 0.00216163 71.9419 0.00216163V0ZM69.7569 7.18095H74.1269V24.621H69.7569V7.18095Z"></path>
<path fill="#FF0080" d="M78.0974 7.18095H82.4673V8.96862C83.4583 8.13207 84.3565 7.55059 85.1618 7.22418C85.9672 6.89777 86.7898 6.73349 87.6318 6.73349C89.3591 6.73349 90.8251 7.33659 92.0276 8.54494C93.0402 9.57172 93.5476 11.0892 93.5476 13.0973V24.6232H89.2252V16.9861C89.2252 14.9045 89.1324 13.5232 88.9467 12.8401C88.761 12.157 88.435 11.6361 87.9729 11.2794C87.5087 10.9227 86.9388 10.7433 86.2565 10.7433C85.3734 10.7433 84.6134 11.0395 83.9808 11.6318C83.3461 12.224 82.9078 13.0433 82.6617 14.0895C82.5343 14.6343 82.4695 15.8145 82.4695 17.6281V24.6253H78.0996V7.18095H78.0974Z"></path>
<path fill="#FF0080" d="M97.8053 0.449615H102.175V14.3705L108.611 7.18095H114.1L106.597 15.54L114.998 24.621H109.572L102.175 16.5841V24.621H97.8053V0.449615Z"></path>
</g>
<defs>
<clipPath id="clip0_445_687">
<rect fill="white" height="31" width="115"></rect>
</clipPath>
</defs>
</svg>
