<svg width="12" height="14" viewBox="0 0 3.175 3.704" xmlns="http://www.w3.org/2000/svg"><path d="M1.478 3.701a1.594 1.594 0 0 1-1.131-.593A1.604 1.604 0 0 1 .03 1.803 1.592 1.592 0 0 1 1.254.562a1.37 1.37 0 0 1 .33-.032c.175 0 .292.016.447.06a1.652 1.652 0 0 1 .545.281.966.966 0 0 0 .131-.12l.125-.125.036.032c.045.04.138.132.18.18l.031.036-.25.252.043.058a1.584 1.584 0 0 1-.406 2.255 1.6 1.6 0 0 1-.988.262zm.258-.355c.15-.019.318-.072.442-.14a1.245 1.245 0 0 0 .63-1.291A1.24 1.24 0 0 0 1.736.889a1.765 1.765 0 0 0-.298 0 1.276 1.276 0 0 0-.631.268 1.23 1.23 0 0 0-.447 1.12 1.239 1.239 0 0 0 1.376 1.069zm-.325-1.582v-.53h.351v1.06h-.35zM1.06.176V0h1.054v.35H1.06z" fill="#de1616"/></svg>